<?xml version="1.0" standalone="no"?>
<!DOCTYPE svg PUBLIC "-//W3C//DTD SVG 20010904//EN"
 "http://www.w3.org/TR/2001/REC-SVG-20010904/DTD/svg10.dtd">
<svg version="1.0" xmlns="http://www.w3.org/2000/svg"
 width="700.000000pt" height="700.000000pt" viewBox="0 0 700.000000 700.000000"
 preserveAspectRatio="xMidYMid meet">
<metadata>
Created by potrace 1.14, written by Peter Selinger 2001-2017
</metadata>
<g transform="translate(0.000000,700.000000) scale(0.100000,-0.100000)"
fill="#000000" stroke="none">
<path d="M1533 6984 c-284 -34 -565 -144 -803 -312 -122 -86 -316 -280 -402
-402 -160 -226 -267 -492 -310 -770 -19 -125 -19 -3875 0 -4000 43 -278 150
-544 310 -770 86 -122 280 -316 402 -402 175 -124 394 -225 593 -273 226 -56
198 -55 2173 -55 1195 0 1858 4 1925 10 302 31 601 143 849 318 122 86 316
280 402 402 175 248 287 547 318 849 14 142 14 3700 0 3842 -31 302 -143 601
-318 849 -86 122 -280 316 -402 402 -167 118 -385 221 -570 268 -220 57 -84
53 -2150 56 -1560 2 -1925 0 -2017 -12z m1157 -1121 c50 -20 108 -80 136 -138
l24 -50 0 -1672 0 -1673 983 0 982 0 50 -24 c56 -26 119 -90 141 -143 8 -19
15 -66 15 -103 1 -116 -49 -198 -149 -247 l-57 -28 -1150 0 -1150 0 -57 28
c-32 16 -71 45 -88 65 -64 77 -60 -44 -58 1977 l3 1840 22 40 c40 76 109 127
198 148 30 8 115 -3 155 -20z"/>
</g>
</svg>
